:SAMPLES-PER-SECOND 30
:FULLY-SPECIFIED
:DEGREES
672
root  58.5394 38.7369 -25.7554 4.591 -33.2026 1.31607
RightUpLeg  -25.4152 -28.0626 -5.26189
RightLeg  24.5777 -1.69416 -1.07803
RightFoot  -2.49136 -0.302973 3.67331
RightToes  0.000482159 0.542163 -0.142577
Spine  32.9797 -0.528747 -0.878573
Spine1  7.79717 -0.577594 -1.08723
HEad  -19.4406 2.87404 -3.62544
LeftShoulder1  10.6455 -15.9524 -47.7605
LeftArm  -12.5067 29.8447 -19.4739
LeftForeArm  16.1799 -18.9109 -3.68466
LeftHand  -0.25398 0.0180481 5.50724
RightShoulder  6.80965 11.5974 39.0034
RightArm  -6.34959 -19.9491 29.4618
RightForeArm  -10.763 12.7153 7.66709
RightHand  -2.26562 6.57205 -22.1258
LeftUpLeg  -2.14229 13.947 16.9629
LeftLeg  13.6406 25.8758 5.04267
LeftFoot  -6.35014 0.17301 -2.98137
LeftToes  1.06246e-005 4.65854e-005 -8.18503e-006
673
root  57.3011 38.7288 -25.5606 2.90244 -34.8565 0.980072
RightUpLeg  -22.9936 -26.1125 -4.94892
RightLeg  26.8316 -2.29987 -1.49713
RightFoot  -5.22542 -0.162852 2.41669
RightToes  0.000482159 0.542163 -0.142577
Spine  32.9544 -0.9197 -0.588763
Spine1  7.98593 -1.20761 -0.0267525
HEad  -18.1824 5.30204 -4.12166
LeftShoulder1  10.4662 -15.6047 -47.8114
LeftArm  -12.8531 32.4182 -21.2039
LeftForeArm  17.6907 -19.5446 -3.62237
LeftHand  -0.25398 0.0180481 5.50724
RightShoulder  6.78214 11.3649 39.5005
RightArm  -7.35315 -19.7265 28.49
RightForeArm  -8.03882 12.2487 7.43165
RightHand  -1.94044 5.79199 -20.3488
LeftUpLeg  -1.83883 11.7255 15.8479
LeftLeg  17.6119 18.8206 6.73493
LeftFoot  -10.2134 0.032518 1.21093
LeftToes  1.06246e-005 4.65854e-005 -8.18503e-006
674
root  56.1644 38.737 -25.328 1.49837 -36.0676 0.685349
RightUpLeg  -20.4087 -23.9932 -4.69657
RightLeg  28.3369 -3.19203 -2.09778
RightFoot  -7.53921 -0.116572 1.98344
RightToes  0.000482159 0.542163 -0.142577
Spine  32.442 -1.3169 0.451694
Spine1  8.6273 -1.40652 0.610936
HEad  -17.4157 6.30106 -4.23108
LeftShoulder1  10.4348 -15.4455 -48.0718
LeftArm  -12.6522 32.6365 -22.437
LeftForeArm  21.271 -19.8901 -3.50247
LeftHand  -0.25398 0.0180481 5.50724
RightShoulder  6.69661 11.0548 39.8653
RightArm  -8.85028 -18.8614 27.9598
RightForeArm  -7.35945 12.5133 7.05278
RightHand  -1.96998 6.03706 -20.2023
LeftUpLeg  -3.44675 8.21349 14.2099
LeftLeg  23.8368 10.695 5.43988
LeftFoot  -12.0284 0.0699595 -0.488338
LeftToes  1.06246e-005 4.65854e-005 -8.18503e-006
675
root  55.0801 38.8141 -25.0092 0.701523 -37.5989 0.131516
RightUpLeg  -17.7038 -22.4599 -4.03104
RightLeg  28.4638 -3.08101 -2.04926
RightFoot  -9.22091 -0.0913521 1.54473
RightToes  0.000482159 0.542163 -0.142577
Spine  31.3164 -1.57855 2.40462
Spine1  9.35614 -0.882236 0.115566
HEad  -16.4312 6.296 -4.49152
LeftShoulder1  10.4012 -15.3693 -48.1109
LeftArm  -11.907 31.7776 -23.389
LeftForeArm  25.6592 -20.8254 -3.39673
LeftHand  -0.25398 0.0180481 5.50724
RightShoulder  6.58484 10.8379 39.7864
RightArm  -10.2262 -17.7418 28.1979
RightForeArm  -8.69806 13.0979 6.78097
RightHand  -2.08952 6.28595 -20.9528
LeftUpLeg  -5.98414 6.48657 12.0755
LeftLeg  30.075 4.64601 3.3024
LeftFoot  -11.8674 0.0541341 -4.04838
LeftToes  1.06246e-005 4.65854e-005 -8.18503e-006
676
root  53.9721 38.997 -24.6344 0.205688 -39.6352 -0.0558014
RightUpLeg  -14.8723 -21.8331 -3.51198
RightLeg  27.2166 -1.99531 -1.3636
RightFoot  -10.5472 -0.0780014 0.974324
RightToes  0.000482159 0.542163 -0.142577
Spine  29.8287 -1.34408 3.9506
Spine1  9.65411 0.11026 -1.00326
HEad  -14.7473 6.10425 -5.1147
LeftShoulder1  10.2915 -15.2412 -47.9265
LeftArm  -11.3853 31.0305 -24.2221
LeftForeArm  28.7296 -22.5638 -3.41461
LeftHand  -0.25398 0.0180481 5.50724
RightShoulder  6.46026 10.7288 39.2888
RightArm  -10.6261 -16.3304 28.9128
RightForeArm  -10.4556 13.6529 6.7339
RightHand  -2.06798 5.90694 -21.4018
LeftUpLeg  -8.78208 5.88606 9.0787
LeftLeg  34.6139 4.30707 3.57985
LeftFoot  -11.1695 0.0730746 -4.97653
LeftToes  1.06246e-005 4.65854e-005 -8.18503e-006
677
root  52.8292 39.2613 -24.248 -0.263016 -41.6318 0.37767
RightUpLeg  -11.903 -21.8973 -3.49209
RightLeg  24.9903 -0.499786 -0.481537
RightFoot  -11.3645 -0.0766948 0.492777
RightToes  0.000482159 0.542163 -0.142577
Spine  28.2244 -0.716175 4.60505
Spine1  9.31494 1.13387 -2.00732
HEad  -12.7547 6.09732 -5.89074
LeftShoulder1  10.1266 -15.0578 -47.62
LeftArm  -11.7542 30.617 -24.9856
LeftForeArm  29.199 -24.4306 -3.68509
LeftHand  -0.25398 0.0180481 5.50724
RightShoulder  6.3327 10.5852 38.8668
RightArm  -9.58923 -14.4414 29.5194
RightForeArm  -11.252 14.396 6.78834
RightHand  -1.94975 5.34227 -21.2317
LeftUpLeg  -11.7176 6.60332 5.50322
LeftLeg  36.4007 6.97177 5.82998
LeftFoot  -10.3442 0.0944728 -3.79311
LeftToes  1.06246e-005 4.65854e-005 -8.18503e-006
678
root  51.669 39.5129 -23.86 -0.70459 -43.0755 0.908875
RightUpLeg  -8.73592 -21.3023 -3.77408
RightLeg  22.4929 0.0188022 0.301301
RightFoot  -11.7891 -0.0802372 -0.100119
RightToes  0.000482159 0.542163 -0.142577
Spine  26.6704 -0.078619 4.96099
Spine1  8.8094 1.96269 -2.79248
HEad  -11.1183 6.18164 -6.61444
LeftShoulder1  9.96685 -14.9029 -47.2568
LeftArm  -12.8537 30.1826 -25.6856
LeftForeArm  27.2778 -25.7998 -4.08222
LeftHand  -0.25398 0.0180481 5.50724
RightShoulder  6.24148 10.3824 38.8669
RightArm  -7.2369 -11.9941 29.7744
RightForeArm  -11.1975 15.5914 6.7658
RightHand  -1.86602 5.11911 -20.7666
LeftUpLeg  -14.4131 8.52521 1.9663
LeftLeg  35.1159 8.94412 7.04976
LeftFoot  -9.38346 0.109226 -3.0585
LeftToes  1.06246e-005 4.65854e-005 -8.18503e-006
